<svg width="132" height="132" viewBox="0 0 132 132" fill="none" xmlns="http://www.w3.org/2000/svg">
<path fill-rule="evenodd" clip-rule="evenodd" d="M128.485 3.51472C133.172 8.20101 133.172 15.799 128.485 20.4853L20.4853 128.485C15.799 133.172 8.20101 133.172 3.51472 128.485C-1.17157 123.799 -1.17157 116.201 3.51472 111.515L111.515 3.51472C116.201 -1.17157 123.799 -1.17157 128.485 3.51472Z" fill="#F8FAFC"/>
<path fill-rule="evenodd" clip-rule="evenodd" d="M3.51472 3.51472C8.20101 -1.17157 15.799 -1.17157 20.4853 3.51472L128.485 111.515C133.172 116.201 133.172 123.799 128.485 128.485C123.799 133.172 116.201 133.172 111.515 128.485L3.51472 20.4853C-1.17157 15.799 -1.17157 8.20101 3.51472 3.51472Z" fill="#F8FAFC"/>
</svg>
